<svg width="20" height="20" viewBox="0 0 20 20" fill="none" xmlns="http://www.w3.org/2000/svg">
<path d="M5.83333 10.001C2.5 10.001 2.5 11.4926 2.5 13.3343V14.1676C2.5 16.4676 2.5 18.3343 6.66667 18.3343H13.3333C16.6667 18.3343 17.5 16.4676 17.5 14.1676V13.3343C17.5 11.4926 17.5 10.001 14.1667 10.001C13.3333 10.001 13.1 10.176 12.6667 10.501L11.8167 11.401C10.8333 12.451 9.16667 12.451 8.175 11.401L7.33333 10.501C6.9 10.176 6.66667 10.001 5.83333 10.001Z" stroke="#1A82FF" stroke-width="1.25" stroke-miterlimit="10" stroke-linecap="round" stroke-linejoin="round"/>
<path d="M15.8332 10.0013V5.0013C15.8332 3.15964 15.8332 1.66797 12.4998 1.66797H7.49984C4.1665 1.66797 4.1665 3.15964 4.1665 5.0013V10.0013" stroke="#1A82FF" stroke-width="1.25" stroke-miterlimit="10" stroke-linecap="round" stroke-linejoin="round"/>
<path d="M8.7915 7.69336H11.5665" stroke="#1A82FF" stroke-width="1.25" stroke-linecap="round" stroke-linejoin="round"/>
<path d="M8.1001 5.19336H12.2668" stroke="#1A82FF" stroke-width="1.25" stroke-linecap="round" stroke-linejoin="round"/>
</svg>
