<svg width="40" height="41" viewBox="0 0 40 41" fill="none" xmlns="http://www.w3.org/2000/svg">
<path d="M17.4997 33.6673V7.33398C17.4997 4.83398 16.433 3.83398 13.783 3.83398H7.04967C4.39967 3.83398 3.33301 4.83398 3.33301 7.33398V33.6673C3.33301 36.1673 4.39967 37.1673 7.04967 37.1673H13.783C16.433 37.1673 17.4997 36.1673 17.4997 33.6673Z" stroke="#292D32" stroke-width="2.5" stroke-linecap="round" stroke-linejoin="round"/>
<path d="M36.6667 18.6673V7.33398C36.6667 4.83398 35.6 3.83398 32.95 3.83398H26.2167C23.5667 3.83398 22.5 4.83398 22.5 7.33398V18.6673C22.5 21.1673 23.5667 22.1673 26.2167 22.1673H32.95C35.6 22.1673 36.6667 21.1673 36.6667 18.6673Z" stroke="#292D32" stroke-width="2.5" stroke-linecap="round" stroke-linejoin="round"/>
<path d="M36.6667 33.667V30.667C36.6667 28.167 35.6 27.167 32.95 27.167H26.2167C23.5667 27.167 22.5 28.167 22.5 30.667V33.667C22.5 36.167 23.5667 37.167 26.2167 37.167H32.95C35.6 37.167 36.6667 36.167 36.6667 33.667Z" stroke="#292D32" stroke-width="2.5" stroke-linecap="round" stroke-linejoin="round"/>
</svg>
