<svg width="40" height="41" viewBox="0 0 40 41" fill="none" xmlns="http://www.w3.org/2000/svg">
<path d="M17.9168 4.58418C19.0835 3.60085 20.9668 3.60085 22.1001 4.58418L24.7335 6.83418C25.2335 7.25085 26.1835 7.60085 26.8501 7.60085H29.6835C31.4501 7.60085 32.9001 9.05085 32.9001 10.8175V13.6508C32.9001 14.3175 33.2501 15.2508 33.6668 15.7508L35.9168 18.3842C36.9001 19.5508 36.9001 21.4342 35.9168 22.5675L33.6668 25.2008C33.2501 25.7008 32.9001 26.6342 32.9001 27.3008V30.1342C32.9001 31.9008 31.4501 33.3508 29.6835 33.3508H26.8501C26.1835 33.3508 25.2501 33.7008 24.7501 34.1175L22.1168 36.3675C20.9501 37.3508 19.0668 37.3508 17.9335 36.3675L15.3001 34.1175C14.8001 33.7008 13.8501 33.3508 13.2001 33.3508H10.2835C8.5168 33.3508 7.0668 31.9008 7.0668 30.1342V27.2842C7.0668 26.6342 6.73346 25.6842 6.3168 25.2008L4.0668 22.5508C3.10013 21.4008 3.10013 19.5342 4.0668 18.3842L6.3168 15.7342C6.73346 15.2342 7.0668 14.3008 7.0668 13.6508V10.8342C7.0668 9.06751 8.5168 7.61751 10.2835 7.61751H13.1668C13.8335 7.61751 14.7668 7.26751 15.2668 6.85085L17.9168 4.58418Z" stroke="#292D32" stroke-width="2.5" stroke-linecap="round" stroke-linejoin="round"/>
<path d="M20 14.0498V22.0998" stroke="#292D32" stroke-width="2.5" stroke-linecap="round" stroke-linejoin="round"/>
<path d="M19.9902 27.167H20.0052" stroke="#292D32" stroke-width="3.33333" stroke-linecap="round" stroke-linejoin="round"/>
</svg>
