    <svg width="40" height="41" viewBox="0 0 40 41" fill="none" xmlns="http://www.w3.org/2000/svg">
<path d="M13.333 3.83398V8.83398" stroke="#292D32" stroke-width="2.5" stroke-miterlimit="10" stroke-linecap="round" stroke-linejoin="round"/>
<path d="M26.667 3.83398V8.83398" stroke="#292D32" stroke-width="2.5" stroke-miterlimit="10" stroke-linecap="round" stroke-linejoin="round"/>
<path d="M5.83301 15.6504H34.1663" stroke="#292D32" stroke-width="2.5" stroke-miterlimit="10" stroke-linecap="round" stroke-linejoin="round"/>
<path d="M32.017 26.7851L26.1171 32.6851C25.8837 32.9184 25.667 33.3518 25.617 33.6684L25.3004 35.9184C25.1837 36.7351 25.7504 37.3018 26.5671 37.1851L28.8171 36.8685C29.1337 36.8185 29.5837 36.6018 29.8004 36.3684L35.7004 30.4685C36.7171 29.4518 37.2004 28.2685 35.7004 26.7685C34.2171 25.2851 33.0337 25.7684 32.017 26.7851Z" stroke="#292D32" stroke-width="2.5" stroke-miterlimit="10" stroke-linecap="round" stroke-linejoin="round"/>
<path d="M31.167 27.6348C31.667 29.4348 33.067 30.8348 34.867 31.3348" stroke="#292D32" stroke-width="2.5" stroke-miterlimit="10" stroke-linecap="round" stroke-linejoin="round"/>
<path d="M20 37.1673H13.3333C7.5 37.1673 5 33.834 5 28.834V14.6673C5 9.66732 7.5 6.33398 13.3333 6.33398H26.6667C32.5 6.33398 35 9.66732 35 14.6673V20.5007" stroke="#292D32" stroke-width="2.5" stroke-miterlimit="10" stroke-linecap="round" stroke-linejoin="round"/>
<path d="M19.9921 23.3333H20.0071" stroke="#292D32" stroke-width="3.33333" stroke-linecap="round" stroke-linejoin="round"/>
<path d="M13.8242 23.3333H13.8391" stroke="#292D32" stroke-width="3.33333" stroke-linecap="round" stroke-linejoin="round"/>
<path d="M13.8242 28.3333H13.8391" stroke="#292D32" stroke-width="3.33333" stroke-linecap="round" stroke-linejoin="round"/>
</svg>
