<svg width="127" height="34" viewBox="0 0 127 34" fill="none" xmlns="http://www.w3.org/2000/svg">
<path d="M14.5075 28.1532C14.9208 27.7951 15.3315 27.4343 15.7503 27.0815C19.1153 24.2483 20.8498 20.5647 21.6063 16.3808C22.0454 13.9439 21.917 11.5386 20.9187 9.23596C19.8853 6.84778 18.1481 5.23766 15.4396 4.79531C15.0654 4.73343 14.6804 4.73212 14.2116 4.69657C14.8276 3.4564 15.4274 2.24651 16.0286 1.03399C16.1501 0.785162 16.3947 0.816758 16.6 0.754881C17.0958 0.37967 17.6807 0.45208 18.221 0.517907C21.4213 0.8997 23.6921 2.60329 25.2186 5.30217C26.3624 7.3013 26.9405 9.5608 26.8936 11.8493C26.8092 12.3197 26.8092 12.8007 26.8936 13.2711C26.9423 15.6514 26.302 17.8974 25.4914 20.1092C24.9858 21.4437 24.3616 22.7326 23.6259 23.9613C23.5529 24.1404 23.407 24.2773 23.3165 24.4458C23.2348 24.6009 23.1375 24.7478 23.0261 24.8842C22.968 25.0369 22.8086 25.1475 22.8194 25.3266C21.1565 27.6147 19.2072 29.6343 16.8594 31.2668C14.833 32.6741 12.5987 33.6194 10.0901 33.7682C6.94664 33.9472 4.38268 32.7939 2.48336 30.3373C0.937956 28.3388 0.29494 26.0138 0.0369231 23.5638C0.028939 23.4774 0.0434484 23.3905 0.079107 23.3111C0.114766 23.2317 0.170418 23.1624 0.240904 23.1096C0.546202 22.8208 0.850599 22.5307 1.1541 22.2393C1.51613 22.3144 1.47966 22.608 1.51343 22.8607C1.74308 24.559 2.30639 26.131 3.35602 27.5239C4.58667 29.1551 6.29957 29.8936 8.31237 30.0858C8.44746 30.099 8.58255 30.1069 8.71764 30.1293C8.88109 30.0845 8.9743 30.44 9.17153 30.1991C9.56464 29.8357 10.0955 29.9068 10.5616 29.8041C11.6464 29.5526 12.6896 29.1537 13.6605 28.6192C13.9482 28.4731 14.1873 28.244 14.5075 28.1532Z" fill="#335CA6"/>
<path d="M52.4603 18.7005C52.5954 18.5043 52.5198 18.2818 52.5198 18.0764C52.5279 16.1701 52.536 14.2585 52.5198 12.3561C52.5198 11.952 52.6319 11.8295 53.0493 11.8414C54.4664 11.8664 55.8861 11.8637 57.3018 11.8414C57.699 11.8414 57.853 11.919 57.8503 12.343C57.8305 14.7759 57.8305 17.2089 57.8503 19.6418C57.8571 20.3501 57.4032 20.6634 56.8547 20.8925C55.2904 21.5508 53.6423 21.6587 51.9686 21.5192C51.477 21.4811 50.9892 21.4059 50.5097 21.294C49.5006 21.0531 48.6698 20.5634 48.0578 19.6971C46.8353 17.9711 45.5614 16.2741 44.3064 14.5626C44.0552 14.6719 44.1714 14.8733 44.1714 15.0181C44.1619 16.9679 44.1484 18.919 44.1781 20.8701C44.1781 21.3414 44.043 21.4533 43.5756 21.4428C42.1356 21.4139 40.6942 21.4218 39.2528 21.4428C38.8813 21.4428 38.7503 21.3612 38.753 20.9754C38.7701 18.5864 38.7701 16.1973 38.753 13.8083C38.753 13.1421 39.1299 12.755 39.677 12.4786C41.163 11.7308 42.7705 11.6413 44.4051 11.7466C44.9643 11.784 45.5203 11.8579 46.0693 11.9678C47.1825 12.1916 48.0875 12.6971 48.7441 13.6661C49.8248 15.2722 50.9987 16.8257 52.1348 18.399C52.2131 18.5175 52.2442 18.6965 52.4603 18.7005Z" fill="#33A1C8"/>
<path d="M107.623 21.4363C105.914 21.4363 104.204 21.4257 102.49 21.4481C102.071 21.4481 101.96 21.3283 101.963 20.9215C101.979 18.0743 101.979 15.2266 101.963 12.3785C101.963 11.9243 102.126 11.8388 102.547 11.8401C106.977 11.8519 111.408 11.8295 115.839 11.8598C117.023 11.8677 118.217 11.9454 119.351 12.3469C120.413 12.7221 120.731 13.1553 120.732 14.2414C120.732 14.4389 120.732 14.6364 120.732 14.8325C120.732 16.3913 120.42 16.7955 118.841 17.222C117.51 17.5828 116.139 17.6618 114.702 17.7487L120.737 21.3244C120.575 21.5034 120.389 21.431 120.231 21.431C118.431 21.431 116.632 21.431 114.827 21.431C114.537 21.4533 114.246 21.392 113.991 21.2546C111.985 20.0381 109.97 18.8234 107.946 17.6104C107.618 16.9153 107.841 16.3084 108.554 16.0227C109.267 15.7494 110.027 15.6096 110.794 15.6106C111.761 15.5948 112.728 15.6106 113.694 15.6001C113.943 15.6001 114.192 15.5909 114.41 15.4513C114.516 15.3871 114.6 15.2933 114.651 15.182C114.701 15.0706 114.716 14.947 114.694 14.8273C114.681 14.6947 114.622 14.5702 114.527 14.4745C114.432 14.3788 114.306 14.3174 114.171 14.3007C113.731 14.2054 113.284 14.1468 112.835 14.1256C111.531 14.119 110.226 14.115 108.917 14.1256C108.115 14.1322 108.012 14.2757 107.951 15.0471C107.788 17.0957 107.63 19.1429 107.703 21.1993C107.71 21.2421 107.706 21.2859 107.692 21.3271C107.678 21.3683 107.655 21.4057 107.623 21.4363Z" fill="#335CA5"/>
<path d="M92.1408 11.8519C94.1428 11.8519 96.1462 11.8677 98.1482 11.8414C98.6304 11.8414 98.7466 11.9849 98.7425 12.4351C98.7331 13.8346 98.752 13.8346 97.3012 13.8346C94.5778 13.8346 91.8558 13.8346 89.1324 13.8346C88.7064 13.841 88.2818 13.8851 87.864 13.9663C87.4695 14.0387 87.1683 14.2296 87.1318 14.693C87.0642 15.5764 87.094 15.6251 87.9991 15.6251C91.329 15.6251 94.6602 15.6369 97.9955 15.6132C98.5548 15.6132 98.7804 15.6988 98.7547 16.3163C98.702 17.6249 98.7425 17.6328 97.4241 17.6328C94.2509 17.6328 91.075 17.6328 87.9058 17.642C87.6438 17.642 87.1912 17.4287 87.1602 17.9224C87.1291 18.4161 86.9575 19.0244 87.6911 19.239C88.2122 19.3724 88.7508 19.4296 89.2891 19.4088C92.2151 19.4088 95.1398 19.4206 98.0698 19.3996C98.5764 19.3996 98.7682 19.5049 98.7561 20.0434C98.725 21.4402 98.7561 21.4402 97.312 21.4402C94.0942 21.4402 90.8764 21.4599 87.6586 21.4323C86.1335 21.4178 84.6016 21.3652 83.1251 20.9189C81.8418 20.5318 81.5621 20.1474 81.5621 18.8493C81.5621 17.3576 81.6054 15.866 81.5473 14.3731C81.5081 13.3804 81.9863 12.8222 82.8536 12.4602C84.0788 11.948 85.3838 11.8848 86.682 11.8585C88.4935 11.8243 90.3158 11.8519 92.1408 11.8519Z" fill="#335CA5"/>
<path d="M71.5279 11.8519C73.5542 11.8519 75.5805 11.873 77.6068 11.8387C78.185 11.8295 78.3228 12.0099 78.3093 12.5431C78.2782 13.8333 78.3093 13.8346 76.949 13.8346C74.2945 13.8346 71.6387 13.828 68.9788 13.8346C68.4846 13.8356 67.9913 13.8757 67.5037 13.9544C67.066 14.0268 66.7121 14.2032 66.7134 14.7588C66.7134 15.6185 66.6877 15.6198 67.582 15.6198C70.9133 15.6198 74.2432 15.6369 77.5785 15.6053C78.1891 15.5988 78.3309 15.7725 78.312 16.34C78.2701 17.6209 78.3012 17.6223 77.0125 17.6223C73.7947 17.6223 70.5756 17.6328 67.3578 17.6104C66.8552 17.6104 66.6945 17.7328 66.7175 18.2318C66.758 19.1534 66.7175 20.075 66.735 20.9965C66.7431 21.3401 66.631 21.4481 66.2757 21.4441C64.7006 21.4283 63.1246 21.4283 61.5477 21.4441C61.1964 21.4441 61.0803 21.3349 61.083 20.9913C61.0938 18.6215 61.083 16.2517 61.0911 13.8899C61.0911 13.1948 61.4828 12.7577 62.1015 12.4694C63.1822 11.9625 64.3602 11.9072 65.5219 11.8822C67.5239 11.8387 69.5273 11.8703 71.5306 11.8703L71.5279 11.8519Z" fill="#335CA5"/>
<path d="M20.0987 13.333L19.3652 14.0913C19.1963 13.1145 19.0342 12.2245 18.6371 11.3977C17.4631 8.95291 15.0694 8.01818 12.4906 9.00821C11.0306 9.57083 9.78329 10.5571 8.91752 11.8335C8.79324 12.0099 8.64734 12.1705 8.51226 12.339C8.37998 12.5235 8.25778 12.7147 8.14617 12.9117C6.79267 15.0405 6.09628 17.5039 6.14012 20.0078C6.16444 21.6917 6.5697 23.2991 7.88545 24.5551C8.45449 25.1196 9.19387 25.4919 9.99552 25.6175C10.9222 25.765 11.0533 25.9914 10.621 26.7695C10.4129 27.1434 10.3765 27.6253 9.94553 27.8662C9.36736 28.7562 9.20661 28.822 8.10564 28.6153C5.38228 28.1045 3.5586 26.2771 2.98178 23.3018C2.05103 18.5043 3.48836 14.2809 6.46163 10.4814C7.40164 9.29223 8.51533 8.24367 9.76722 7.36913C10.0707 7.26014 10.3544 7.10458 10.6075 6.90834C11.5125 6.48705 12.4392 6.0921 13.4592 6.02364C16.1244 5.8538 18.5465 7.42311 19.5705 9.98112C19.9042 10.8158 20.1676 11.6702 20.2162 12.5786C20.2405 12.8357 20.2002 13.0946 20.0987 13.333Z" fill="#335CA6"/>
<path d="M35.5203 16.6717C35.5203 18.0935 35.5041 19.5167 35.5311 20.9386C35.5379 21.3533 35.3961 21.4533 34.9908 21.4481C33.44 21.4257 31.8838 21.4283 30.3397 21.4481C29.9547 21.4481 29.8453 21.3322 29.8467 20.9623C29.8602 18.0949 29.8602 15.2279 29.8467 12.3614C29.8467 11.9506 29.9817 11.8348 30.387 11.8466C31.936 11.865 33.4864 11.865 35.0381 11.8466C35.4339 11.8466 35.5284 11.9783 35.523 12.3416C35.5109 13.7819 35.5203 15.2275 35.5203 16.6717Z" fill="#335CA5"/>
<path d="M14.8425 19.4233C14.3539 20.0696 13.7772 20.6481 13.1283 21.1426C12.3312 21.7232 11.4383 21.9905 10.4886 21.5626C9.51737 21.1255 9.13778 20.2579 9.04997 19.2811C8.8649 17.2931 9.50656 15.5948 11.0141 14.219C11.2087 14.0426 11.3964 13.8583 11.5869 13.6779C11.7936 13.6266 11.9395 13.4633 12.1381 13.3922C13.2444 12.8722 14.3521 13.1289 15.0249 14.1045C15.9084 15.3855 15.88 16.7652 15.4112 18.1726C15.2456 18.5994 15.0558 19.017 14.8425 19.4233Z" fill="#F7921E"/>
<path d="M23.4759 24.0285C24.7673 21.6364 25.7832 19.1455 26.2708 16.4729C26.4627 15.4197 26.6585 14.3665 26.6018 13.2817C26.4998 12.8041 26.4998 12.3111 26.6018 11.8335C26.5532 8.83838 25.7548 6.08025 23.765 3.74736C21.9048 1.58694 19.4638 0.677213 16.5999 0.754888C16.6891 0.159817 17.0782 0.017632 17.6455 0.00315015C21.4901 -0.0955896 24.7741 2.13198 26.3303 5.96703C27.338 8.45264 27.5731 11.0317 27.3097 13.6858C26.9422 17.3932 25.7089 20.803 23.7636 23.989C23.7146 24.0617 23.6618 24.132 23.6056 24.1996C23.4962 24.1891 23.3948 24.1733 23.4759 24.0285Z" fill="#F0F0F0"/>
<path d="M8.77841 30.3886C4.86088 30.1253 2.48469 28.1598 1.4945 24.4156C1.31555 23.6995 1.20164 22.9696 1.15408 22.2341L1.85519 21.5008C2.07133 22.7304 2.23478 23.8797 2.69948 24.9606C3.73966 27.3856 5.43365 29.0813 8.18268 29.5329C9.88343 29.8107 11.5112 29.4447 13.0688 28.7575C13.2498 28.6772 13.4335 28.6061 13.6159 28.531C13.7753 28.4507 13.7793 28.5481 13.7699 28.6627C12.3825 29.6264 10.8088 30.1109 9.14991 30.3742C9.12707 30.3998 9.09909 30.4206 9.0677 30.4353C9.03631 30.45 9.00217 30.4583 8.96737 30.4596C8.93257 30.461 8.89786 30.4554 8.86537 30.4432C8.83287 30.431 8.80328 30.4124 8.77841 30.3886Z" fill="#F0F0F0"/>
<path d="M9.94017 27.8701C10.2103 27.275 10.4805 26.6852 10.7656 26.0441C9.98475 25.9414 9.24583 25.865 8.59335 25.4898C6.94529 24.5419 6.20501 23.0332 5.94969 21.2769C5.4985 18.1647 6.35496 15.3526 8.11109 12.7577C8.22862 12.7406 8.30697 12.7577 8.24618 12.8985C7.49915 14.3665 6.88585 15.8778 6.69132 17.5196C6.46978 19.389 6.54408 21.2216 7.52887 22.9173C8.38667 24.3918 9.67405 25.216 11.5315 25.2792C11.1262 26.131 10.7507 26.9499 10.3589 27.7608C10.2779 27.932 10.0969 27.8951 9.94017 27.8701Z" fill="#F0F0F0"/>
<path d="M20.0988 13.333C19.8286 12.4615 19.8124 11.5425 19.5017 10.6736C18.1224 6.82803 14.7358 5.35352 10.898 6.95442C10.775 7.00576 10.648 7.05052 10.5238 7.09923C10.3752 7.20719 10.2887 7.17296 10.2657 6.99391C11.9827 5.87223 13.8483 5.25478 15.911 5.72215C18.375 6.28167 19.6435 8.0524 20.3689 10.2642C20.577 10.9027 20.6486 11.5807 20.7877 12.239C20.9039 12.8182 20.423 13.0302 20.0988 13.333Z" fill="#F0F0F0"/>
<path d="M94.9561 30.9047C95.4478 29.4785 95.94 28.0527 96.4326 26.6273C96.4881 26.4384 96.5609 26.2546 96.6501 26.0783C96.7852 25.8374 97.0553 25.8887 97.2566 25.9348C97.5565 26.0033 97.3687 26.2218 97.3214 26.3548C96.6919 28.0663 96.0462 29.7659 95.4181 31.4748C95.3208 31.7381 95.1736 31.8592 94.8777 31.85C94.6075 31.8421 94.3914 31.8158 94.2941 31.5261C93.6718 29.683 93.0468 27.8368 92.4191 25.9875C92.977 25.8032 93.2297 25.9572 93.3918 26.4812C93.8321 27.9675 94.3374 29.4394 94.8061 30.9166L94.9561 30.9047Z" fill="#666566"/>
<path d="M113.855 29.7001C113.855 30.2701 113.855 30.8389 113.855 31.4115C113.855 31.5774 113.898 31.7907 113.641 31.8263C113.445 31.8539 113.224 31.8908 113.187 31.5932C113.151 31.2957 113.017 31.3944 112.84 31.5063C111.383 32.4358 110.299 31.954 110.138 30.2793C110.07 29.5408 110.117 28.7917 110.109 28.0478C110.109 27.8003 110.166 27.6318 110.48 27.6252C110.833 27.6173 110.886 27.8056 110.886 28.0807C110.886 28.7601 110.873 29.4381 110.886 30.1174C110.904 30.9192 111.319 31.4076 111.939 31.3892C112.588 31.3694 113.051 30.8362 113.06 30.0832C113.069 29.4052 113.06 28.7258 113.06 28.0478C113.06 27.799 113.116 27.6318 113.429 27.6252C113.766 27.616 113.856 27.77 113.851 28.0623C113.841 28.61 113.851 29.1563 113.851 29.704L113.855 29.7001Z" fill="#666465"/>
<path d="M75.679 28.2572C76.1464 27.7543 76.6152 27.5054 77.1826 27.5107C78.0255 27.5186 78.6253 28.1334 78.7009 29.134C78.7577 29.8976 78.7144 30.6677 78.7226 31.434C78.7226 31.6973 78.6442 31.8381 78.3416 31.8447C77.9985 31.8513 77.9255 31.6815 77.9282 31.3958C77.9282 30.6954 77.9282 29.9937 77.9282 29.2893C77.9188 28.7153 77.7256 28.2453 77.0637 28.1426C76.4017 28.0399 75.8952 28.4059 75.7425 29.0813C75.5804 29.7949 75.706 30.5295 75.6642 31.2444C75.6507 31.484 75.7655 31.8144 75.3305 31.8302C74.8361 31.8487 74.9644 31.4787 74.9617 31.2246C74.9482 30.2162 74.9482 29.2068 74.9617 28.1966C74.9617 27.9873 74.8266 27.6845 75.2211 27.6279C75.6331 27.5726 75.5939 27.9096 75.679 28.2572Z" fill="#666565"/>
<path d="M14.8425 19.4232C14.6656 19.1863 14.8884 19.0191 14.96 18.8321C15.3896 17.7276 15.5841 16.594 15.2883 15.4328C14.8614 13.7516 13.7307 13.1105 12.0205 13.5594C11.8949 13.6055 11.8571 13.5449 11.8571 13.4344C12.3717 12.97 13.036 12.6945 13.7362 12.655C14.6899 12.6036 15.5923 13.2527 15.9178 14.2901C16.5081 16.1767 16.0786 17.8869 14.8425 19.4232Z" fill="#F0EFEF"/>
<path d="M52.4711 27.7003C53.1019 27.4962 53.3154 27.7463 53.4626 28.1887C53.7698 29.1431 54.1486 30.0742 54.596 30.9745C54.9094 30.1038 55.2246 29.2336 55.5416 28.3638C55.6051 28.1776 55.6786 27.9948 55.7618 27.8161C55.9063 27.5186 56.2035 27.5857 56.4075 27.6581C56.6507 27.7437 56.4589 27.9596 56.4075 28.0939C55.9536 29.2327 55.4768 30.3636 55.0229 31.5024C54.927 31.742 54.7919 31.8552 54.5285 31.8473C54.292 31.8408 54.1043 31.821 54.0016 31.5538C53.4977 30.2688 52.9844 28.9997 52.4711 27.7003Z" fill="#666565"/>
<path d="M45.5195 28.7759C45.5195 29.629 45.5195 30.4874 45.5195 31.3379C45.5195 31.5775 45.5479 31.8289 45.1697 31.8447C44.7644 31.8619 44.7482 31.617 44.7482 31.3339C44.7482 29.604 44.7482 27.8741 44.7482 26.1442C44.7482 25.8598 44.7712 25.6176 45.1724 25.636C45.5506 25.6544 45.5182 25.9085 45.5195 26.1481C45.5223 27.0249 45.5195 27.8991 45.5195 28.7759Z" fill="#646363"/>
<path d="M106.948 28.764C106.948 29.6395 106.948 30.5137 106.948 31.3892C106.948 31.6644 106.894 31.8474 106.543 31.846C106.191 31.8447 106.156 31.638 106.156 31.3747C106.156 29.6246 106.156 27.875 106.156 26.1257C106.156 25.8769 106.147 25.6452 106.521 25.6347C106.926 25.6228 106.946 25.8506 106.945 26.1402C106.945 27.0144 106.948 27.8899 106.948 28.764Z" fill="#656364"/>
<path d="M66.6268 28.2874C66.8376 27.953 67.1226 27.6594 67.5549 27.5554C67.7724 27.5041 67.9682 27.4857 68.0196 27.7608C68.0601 27.978 67.9899 28.0992 67.7386 28.1874C66.7849 28.5218 66.5958 28.8048 66.5877 29.7738C66.5877 30.3197 66.5877 30.8661 66.5877 31.4129C66.5877 31.6538 66.5498 31.8447 66.2283 31.8381C65.9068 31.8315 65.8784 31.6288 65.8771 31.3944C65.8771 30.3017 65.869 29.209 65.869 28.1163C65.869 27.9214 65.7339 27.6568 66.1094 27.6278C66.4431 27.6028 66.4607 27.8135 66.4661 28.0478C66.456 28.1003 66.467 28.1545 66.497 28.1991C66.527 28.2438 66.5735 28.2754 66.6268 28.2874Z" fill="#666465"/>
<path d="M71.0673 29.708C71.0673 29.163 71.0673 28.6179 71.0673 28.0729C71.0673 27.7977 71.124 27.6187 71.4725 27.62C71.821 27.6213 71.8616 27.8214 71.8602 28.0874C71.8602 29.1775 71.8602 30.2675 71.8602 31.3576C71.8602 31.6065 71.8602 31.8355 71.4941 31.8461C71.097 31.8579 71.0659 31.6328 71.07 31.3431C71.0673 30.7981 71.0673 30.2531 71.0673 29.708Z" fill="#656364"/>
<path d="M48.617 29.6949C48.617 29.1485 48.617 28.6021 48.617 28.0558C48.617 27.8188 48.6454 27.6226 48.9696 27.6266C49.2938 27.6305 49.3249 27.8267 49.3249 28.0637C49.3249 29.1775 49.3249 30.2917 49.3249 31.4063C49.3249 31.6473 49.279 31.8382 48.9629 31.8382C48.6468 31.8382 48.6157 31.6328 48.617 31.3998V29.6949Z" fill="#666566"/>
<path d="M71.9574 26.2705C71.921 26.5338 71.7899 26.705 71.4954 26.7221C71.201 26.7392 71.0078 26.6168 70.9848 26.3271C70.9744 26.2619 70.9793 26.1953 70.9991 26.1322C71.0188 26.0692 71.053 26.0113 71.099 25.9629C71.145 25.9145 71.2017 25.8769 71.2647 25.8529C71.3278 25.8289 71.3955 25.8191 71.463 25.8242C71.7427 25.8229 71.9102 25.9901 71.9574 26.2705Z" fill="#636162"/>
<path d="M48.9845 25.8177C49.2547 25.8769 49.437 26.0072 49.4303 26.3035C49.4235 26.5997 49.2344 26.7234 48.948 26.7195C48.6616 26.7155 48.4833 26.5589 48.4968 26.2679C48.5104 25.977 48.717 25.8611 48.9845 25.8177Z" fill="#656364"/>
<path d="M10.2657 6.9939L10.5237 7.09922C10.2846 7.23087 10.1023 7.50997 9.76184 7.37306C9.87859 7.19265 10.0571 7.05833 10.2657 6.9939Z" fill="#BFC4CF"/>
<path d="M13.7699 28.6601L13.6159 28.5284C13.905 28.3836 14.0968 28.0242 14.5075 28.1506C14.3042 28.3724 14.052 28.5465 13.7699 28.6601Z" fill="#D8DBE2"/>
<path d="M23.4759 24.0285L23.611 24.1997C23.5246 24.3313 23.4395 24.463 23.3544 24.5946C23.2382 24.6065 23.149 24.5946 23.2193 24.4472L23.4759 24.0285Z" fill="#DADDE7"/>
<path d="M8.24346 12.8999C8.20023 12.8538 8.15835 12.8064 8.10837 12.759C8.1303 12.6616 8.17856 12.5716 8.24815 12.4985C8.31775 12.4253 8.40614 12.3717 8.50417 12.343C8.55281 12.5879 8.38665 12.7393 8.24346 12.8999Z" fill="#CDCFD4"/>
<path d="M22.8207 25.3266C22.6019 25.0909 22.8694 25.0014 22.968 24.8605C22.9792 24.8471 22.9938 24.8368 23.0104 24.8306C23.0269 24.8243 23.0448 24.8224 23.0624 24.8249C23.0799 24.8274 23.0965 24.8343 23.1105 24.8449C23.1245 24.8556 23.1355 24.8695 23.1423 24.8855C23.0957 25.0666 22.9809 25.2241 22.8207 25.3266Z" fill="#C0C7D6"/>
<path d="M23.1423 24.8856L22.968 24.8606L23.2193 24.4485L23.3544 24.5959L23.1423 24.8856Z" fill="#CFD4DD"/>
<path d="M11.8571 13.4344L12.0205 13.5595C11.8976 13.6753 11.7706 13.778 11.5869 13.6779C11.6097 13.6198 11.6459 13.5676 11.6928 13.5254C11.7396 13.4831 11.7959 13.452 11.8571 13.4344Z" fill="#E0CBB0"/>
<path d="M26.6005 11.8387C26.6597 12.3197 26.6597 12.8059 26.6005 13.2869C26.4995 13.0582 26.4474 12.8118 26.4474 12.5628C26.4474 12.3138 26.4995 12.0674 26.6005 11.8387Z" fill="#2A55A3"/>
<path d="M8.77844 30.3886L9.14993 30.3689C9.21072 30.3847 9.29448 30.3807 9.3296 30.4189C9.41605 30.515 9.29988 30.5045 9.25665 30.5097C9.17268 30.5227 9.08686 30.5187 9.00457 30.4978C8.92228 30.477 8.8453 30.4398 8.77844 30.3886Z" fill="#2854A1"/>
<path fill-rule="evenodd" clip-rule="evenodd" d="M29.8683 28.128C29.8669 28.3984 29.8656 28.6689 29.8656 28.9391C29.8656 29.2095 29.8663 29.4799 29.8671 29.7502C29.8686 30.2907 29.8701 30.831 29.8656 31.3708C29.8588 31.6946 29.9723 31.8342 30.3114 31.8816C31.1594 32.004 32.0244 31.9479 32.8483 31.717C34.264 31.3221 35.0435 30.1675 34.98 28.6021C34.9205 27.1829 34.106 26.2481 32.6322 25.969C31.9899 25.8481 31.3369 25.8834 30.6865 25.9185C30.5722 25.9246 30.4579 25.9308 30.3438 25.9361C29.9777 25.9532 29.8588 26.1586 29.8656 26.5049C29.8737 27.0456 29.871 27.5869 29.8683 28.128ZM30.6571 26.9604V28.8602C30.6571 29.0056 30.657 29.151 30.6568 29.2964C30.6564 29.8053 30.6559 30.3142 30.6611 30.8231C30.6612 30.8363 30.6612 30.8495 30.6612 30.8626C30.6612 31.0625 30.6613 31.2482 30.9516 31.326C32.216 31.6644 33.6668 30.9258 34.0343 29.7343C34.6705 27.6713 33.3102 26.1534 31.1002 26.443C30.7476 26.4891 30.6571 26.6523 30.6571 26.9604Z" fill="#666565"/>
<path fill-rule="evenodd" clip-rule="evenodd" d="M81.7998 30.5703C82.2632 31.9119 83.5546 32.212 85.0001 31.2668C85.073 32.7952 84.2517 33.4575 82.8198 33.0809C82.7337 33.0591 82.6489 33.0327 82.5658 33.0019C82.4145 32.9453 82.2591 32.8914 82.17 33.0849C82.0808 33.2784 82.143 33.4074 82.3267 33.5207C83.4844 34.2382 85.3878 33.5338 85.6458 32.2305C85.8326 31.2843 85.8027 30.3236 85.7727 29.3627C85.7576 28.8782 85.7425 28.3937 85.7552 27.9109C85.7633 27.5713 85.3513 27.5515 85.2919 27.6568C85.0299 28.1234 84.8049 27.9561 84.5838 27.7915C84.4948 27.7253 84.4065 27.6596 84.3165 27.6358C83.9666 27.5449 83.633 27.4712 83.2601 27.5673C82.0011 27.8951 81.3365 29.2288 81.7998 30.5703ZM84.4828 31.0917C84.9975 30.7349 85.0124 30.2122 84.9813 29.5948V29.5946C84.9813 29.5011 84.9813 29.3248 84.9786 29.1511C84.934 28.6074 84.6139 28.2703 84.0965 28.115C83.5791 27.9596 83.163 28.1532 82.8348 28.5192C82.3336 29.0774 82.2917 30.1227 82.7132 30.7388C82.8025 30.8787 82.9201 30.9994 83.0588 31.0935C83.1976 31.1876 83.3545 31.2531 83.5201 31.2861C83.6857 31.3191 83.8565 31.3189 84.022 31.2855C84.1875 31.2521 84.3443 31.1861 84.4828 31.0917Z" fill="#666566"/>
<path fill-rule="evenodd" clip-rule="evenodd" d="M119.778 27.6082C118.391 27.1526 117.104 28.1822 117.092 29.762C117.038 31.8039 118.93 32.2911 120.467 31.7868C120.585 31.7487 120.72 31.6828 120.665 31.509C120.609 31.3353 120.52 31.2523 120.324 31.2971C120.107 31.351 119.886 31.3915 119.664 31.4182C118.806 31.5051 118.132 31.1062 117.901 30.4216C117.772 30.0411 117.818 29.8463 118.294 29.8607C118.785 29.8722 119.279 29.8684 119.774 29.8646C120.021 29.8626 120.269 29.8607 120.516 29.8607L120.521 29.8607C120.75 29.8594 120.951 29.8583 120.994 29.5435C121.093 28.7851 120.527 27.8544 119.778 27.6082ZM118.569 29.3381C118.725 29.3493 118.882 29.3493 119.038 29.3381C119.105 29.3381 119.172 29.3386 119.239 29.339C119.374 29.3399 119.508 29.3408 119.642 29.3381C120.234 29.3236 120.349 29.1393 120.091 28.6219C119.728 27.8899 118.765 27.7991 118.199 28.4455C118.007 28.6654 117.803 28.9339 117.908 29.2065C117.979 29.3927 118.156 29.3705 118.333 29.3483C118.415 29.338 118.498 29.3277 118.569 29.3381Z" fill="#666565"/>
<path fill-rule="evenodd" clip-rule="evenodd" d="M39.2811 29.862H40.2268L40.2227 29.8673H41.4385C41.6816 29.8699 41.8032 29.7738 41.8289 29.5263C41.8654 29.2293 41.8255 28.928 41.7127 28.6498C41.5999 28.3715 41.4178 28.125 41.1829 27.9325C40.9479 27.7399 40.6675 27.6074 40.3668 27.5469C40.0662 27.4864 39.7548 27.4997 39.4608 27.5858C38.576 27.8175 38.1099 28.4362 37.9748 29.2656C37.8371 30.1319 37.9046 30.9956 38.7381 31.5669C39.5459 32.1199 40.4321 32.0369 41.3196 31.7736C41.3526 31.7663 41.3835 31.752 41.4101 31.7317C41.4368 31.7114 41.4585 31.6856 41.4737 31.6562C41.489 31.6267 41.4973 31.5944 41.4982 31.5615C41.4992 31.5285 41.4926 31.4958 41.479 31.4656C41.4358 31.3129 41.3655 31.2431 41.194 31.2839C40.9985 31.3337 40.8006 31.3736 40.6009 31.4037C39.8161 31.5169 39.1069 31.2115 38.8151 30.6401C38.503 30.0306 38.5976 29.8699 39.2811 29.862ZM39.3567 29.3381C39.5132 29.346 39.6702 29.346 39.8268 29.3381C39.9089 29.3381 39.9909 29.3388 40.0727 29.3395C40.2156 29.3407 40.3582 29.3419 40.5008 29.3394C41.075 29.3236 41.1763 29.1682 40.952 28.6653C40.5927 27.8609 39.5498 27.7846 38.9784 28.5192C38.815 28.7272 38.6204 28.9787 38.738 29.2288C38.8105 29.3813 38.9791 29.3639 39.1469 29.3467C39.2196 29.3392 39.2921 29.3317 39.3567 29.3381Z" fill="#666565"/>
<path fill-rule="evenodd" clip-rule="evenodd" d="M60.9005 29.8656C61.013 29.8638 61.1257 29.8621 61.2383 29.8621L61.2356 29.8608H62.3811C62.6405 29.8647 62.7891 29.7923 62.8269 29.5014C62.8686 29.2177 62.8381 28.9285 62.7381 28.659C62.6382 28.3896 62.4718 28.1482 62.2536 27.9562C62.0355 27.7641 61.7722 27.6272 61.4871 27.5576C61.2019 27.488 60.9035 27.4877 60.6182 27.5568C59.4875 27.8188 58.9648 28.6338 58.9972 30.0122C59.0445 31.7645 60.8006 32.3161 62.3392 31.7855C62.3774 31.7739 62.4125 31.7544 62.4422 31.7283C62.4719 31.7023 62.4955 31.6703 62.5114 31.6346C62.5273 31.5989 62.5351 31.5602 62.5343 31.5213C62.5335 31.4824 62.5241 31.4441 62.5067 31.409C62.4535 31.2555 62.3337 31.2771 62.2224 31.2972C62.2038 31.3006 62.1854 31.3039 62.1677 31.3063C62.0772 31.3194 61.9878 31.3387 61.8985 31.358C61.7905 31.3814 61.6827 31.4046 61.5733 31.4169C60.7425 31.5091 60.0792 31.1549 59.8091 30.5072C59.6321 30.0846 59.6645 29.8292 60.2265 29.8621C60.4507 29.8726 60.6755 29.8691 60.9005 29.8656ZM60.5344 29.3393C60.6454 29.3486 60.7571 29.3486 60.8681 29.3393C61.0033 29.3531 61.1396 29.3527 61.2747 29.338C61.3652 29.3187 61.4731 29.3326 61.5807 29.3464C61.8037 29.3751 62.0251 29.4036 62.0852 29.1353C62.1744 28.7377 61.9245 28.3717 61.5449 28.165C61.0613 27.9017 60.5885 27.9807 60.1832 28.3282C59.9252 28.5494 59.6753 28.8509 59.7671 29.1734C59.8299 29.3937 60.0388 29.3709 60.251 29.3476C60.3495 29.3368 60.4488 29.326 60.5344 29.3393Z" fill="#666565"/>
<path fill-rule="evenodd" clip-rule="evenodd" d="M102.917 31.4932V30.2478C102.917 29.9858 102.918 29.7225 102.925 29.4565C102.92 27.8635 102.152 27.2553 100.569 27.6134C100.517 27.6248 100.458 27.6333 100.396 27.6421C100.125 27.681 99.8121 27.7259 99.8936 28.0544C99.9714 28.3693 100.197 28.2628 100.405 28.1641C100.482 28.1275 100.557 28.0919 100.622 28.0794C101.328 27.9438 101.896 28.111 102.062 28.5889C102.174 28.9102 102.198 29.2143 101.69 29.1985C101.308 29.2002 100.929 29.2708 100.573 29.4065C99.6234 29.7356 99.2276 30.5255 99.6099 31.3155C99.926 31.9658 100.886 32.1712 101.673 31.7486C101.723 31.7215 101.771 31.6867 101.818 31.6526C101.997 31.5228 102.161 31.4041 102.39 31.767C102.512 31.9553 102.917 31.9079 102.917 31.4932ZM102.22 30.1491C102.212 29.687 101.933 29.6778 101.629 29.7068C100.72 29.7397 100.17 30.1373 100.226 30.7258C100.279 31.2168 100.585 31.4498 101.089 31.434C101.758 31.4143 102.233 30.8456 102.22 30.1491Z" fill="#666565"/>
<path fill-rule="evenodd" clip-rule="evenodd" d="M123.639 14.0861C124.758 14.0861 125.666 13.2019 125.666 12.1113C125.666 11.0206 124.758 10.1365 123.639 10.1365C122.52 10.1365 121.613 11.0206 121.613 12.1113C121.613 13.2019 122.52 14.0861 123.639 14.0861ZM123.639 14.481C124.982 14.481 126.071 13.42 126.071 12.1113C126.071 10.8025 124.982 9.74152 123.639 9.74152C122.296 9.74152 121.208 10.8025 121.208 12.1113C121.208 13.42 122.296 14.481 123.639 14.481Z" fill="#918F8F"/>
<path d="M123.568 12.0404C123.649 12.0404 123.72 12.0305 123.78 12.0106C123.841 11.9907 123.891 11.9635 123.93 11.929C123.97 11.8934 123.999 11.8515 124.019 11.8034C124.038 11.7552 124.048 11.7024 124.048 11.6448C124.048 11.5297 124.008 11.4413 123.93 11.3795C123.853 11.3178 123.734 11.2869 123.574 11.2869H123.297V12.0404H123.568ZM124.682 13.2303H124.291C124.217 13.2303 124.163 13.202 124.13 13.1455L123.64 12.4187C123.622 12.3915 123.601 12.3722 123.579 12.3606C123.557 12.3491 123.525 12.3434 123.482 12.3434H123.297V13.2303H122.864V10.9604H123.574C123.732 10.9604 123.867 10.9766 123.98 11.0091C124.094 11.0405 124.187 11.085 124.259 11.1425C124.332 11.2001 124.385 11.2691 124.42 11.3497C124.454 11.4293 124.471 11.5172 124.471 11.6134C124.471 11.6898 124.459 11.762 124.436 11.8301C124.413 11.8981 124.38 11.9598 124.336 12.0153C124.293 12.0708 124.239 12.1194 124.175 12.1613C124.111 12.2031 124.039 12.2361 123.957 12.2602C123.985 12.2759 124.011 12.2947 124.035 12.3167C124.058 12.3376 124.08 12.3627 124.099 12.392L124.682 13.2303Z" fill="#918F8F"/>
</svg>
